<?xml version="1.0" encoding="utf-8" standalone="no"?>
<!DOCTYPE svg PUBLIC "-//W3C//DTD SVG 1.1//EN"
  "http://www.w3.org/Graphics/SVG/1.1/DTD/svg11.dtd">
<svg xmlns:xlink="http://www.w3.org/1999/xlink" width="288pt" height="288pt" viewBox="0 0 288 288" xmlns="http://www.w3.org/2000/svg" version="1.1">
 <metadata>
  <rdf:RDF xmlns:dc="http://purl.org/dc/elements/1.1/" xmlns:cc="http://creativecommons.org/ns#" xmlns:rdf="http://www.w3.org/1999/02/22-rdf-syntax-ns#">
   <cc:Work>
    <dc:type rdf:resource="http://purl.org/dc/dcmitype/StillImage"/>
    <dc:date>2023-09-07T20:38:20.441726</dc:date>
    <dc:format>image/svg+xml</dc:format>
    <dc:creator>
     <cc:Agent>
      <dc:title>Matplotlib v3.7.2, https://matplotlib.org/</dc:title>
     </cc:Agent>
    </dc:creator>
   </cc:Work>
  </rdf:RDF>
 </metadata>
 <defs>
  <style type="text/css">*{stroke-linejoin: round; stroke-linecap: butt}</style>
 </defs>
 <g id="figure_1">
  <g id="patch_1">
   <path d="M 0 288 
L 288 288 
L 288 0 
L 0 0 
z
" style="fill: #ffffff"/>
  </g>
  <g id="axes_1">
   <g id="matplotlib.axis_1"/>
   <g id="matplotlib.axis_2"/>
   <g id="line2d_1">
    <path d="M 0 13.090914 
L 1.44 13.254499 
L 2.88 13.744642 
L 4.32 14.559507 
L 5.76 15.696048 
L 7.2 17.150028 
L 8.64 18.916044 
L 10.08 20.987561 
L 11.52 23.356951 
L 13.68 27.450308 
L 15.84 32.160748 
L 18 37.450315 
L 20.16 43.277003 
L 23.04 51.802357 
L 25.92 61.085725 
L 29.52 73.56929 
L 33.84 89.513099 
L 40.32 114.512365 
L 48.96 147.786706 
L 53.28 163.631791 
L 57.6 178.591566 
L 61.2 190.240557 
L 64.8 201.059883 
L 67.68 209.082407 
L 70.56 216.52606 
L 73.44 223.386247 
L 76.32 229.667117 
L 79.2 235.380458 
L 82.08 240.544548 
L 84.96 245.182996 
L 87.84 249.323603 
L 90.72 252.997291 
L 93.6 256.237087 
L 96.48 259.077216 
L 99.36 261.552295 
L 102.24 263.696635 
L 105.12 265.54366 
L 108 267.125441 
L 110.88 268.472331 
L 113.76 269.612701 
L 117.36 270.78748 
L 120.96 271.726644 
L 125.28 272.599604 
L 129.6 273.251856 
L 134.64 273.799774 
L 141.12 274.261729 
L 149.04 274.585251 
L 159.84 274.790606 
L 178.56 274.891534 
L 249.12 274.909089 
L 288 274.909091 
L 288 274.909091 
" clip-path="url(#pc2748a7339)" style="fill: none; stroke: #0000ff; stroke-width: 5; stroke-linecap: square"/>
   </g>
   <g id="line2d_2">
    <path d="M 0 13.090909 
L 1.44 13.254501 
L 2.88 13.744642 
L 4.32 14.559505 
L 5.76 15.696047 
L 7.2 17.150028 
L 8.64 18.916045 
L 10.08 20.987562 
L 11.52 23.356953 
L 13.68 27.450309 
L 15.84 32.160747 
L 18 37.450314 
L 20.16 43.277002 
L 23.04 51.802357 
L 25.92 61.085726 
L 29.52 73.569291 
L 33.84 89.5131 
L 40.32 114.512364 
L 48.96 147.786706 
L 53.28 163.631792 
L 57.6 178.591567 
L 61.2 190.240557 
L 64.8 201.059882 
L 67.68 209.082406 
L 70.56 216.526059 
L 73.44 223.386246 
L 76.32 229.667116 
L 79.2 235.380458 
L 82.08 240.544549 
L 84.96 245.182996 
L 87.84 249.323604 
L 90.72 252.997291 
L 93.6 256.237087 
L 96.48 259.077216 
L 99.36 261.552295 
L 102.24 263.696634 
L 105.12 265.54366 
L 108 267.125441 
L 110.88 268.472331 
L 113.76 269.612702 
L 117.36 270.78748 
L 120.96 271.726644 
L 125.28 272.599604 
L 129.6 273.251856 
L 134.64 273.799774 
L 141.12 274.261728 
L 149.04 274.58525 
L 159.84 274.790607 
L 178.56 274.891534 
L 249.12 274.909088 
L 288 274.909091 
L 288 274.909091 
" clip-path="url(#pc2748a7339)" style="fill: none; stroke-dasharray: 32,8,5,8; stroke-dashoffset: 0; stroke: #ff0000; stroke-width: 5"/>
   </g>
  </g>
  <g id="axes_2">
   <g id="matplotlib.axis_3">
    <g id="ytick_1">
     <g id="line2d_3">
      <defs>
       <path id="mea4325ea3c" d="M 0 0 
L 3.5 0 
" style="stroke: #000000; stroke-width: 0.8"/>
      </defs>
      <g>
       <use xlink:href="#mea4325ea3c" x="288" y="207.503438" style="stroke: #000000; stroke-width: 0.8"/>
      </g>
     </g>
     <g id="text_1">
      <!-- $\mathdefault{10^{-10}}$ -->
      <g transform="translate(295 211.302657) scale(0.1 -0.1)">
       <defs>
        <path id="DejaVuSans-31" d="M 794 531 
L 1825 531 
L 1825 4091 
L 703 3866 
L 703 4441 
L 1819 4666 
L 2450 4666 
L 2450 531 
L 3481 531 
L 3481 0 
L 794 0 
L 794 531 
z
" transform="scale(0.015625)"/>
        <path id="DejaVuSans-30" d="M 2034 4250 
Q 1547 4250 1301 3770 
Q 1056 3291 1056 2328 
Q 1056 1369 1301 889 
Q 1547 409 2034 409 
Q 2525 409 2770 889 
Q 3016 1369 3016 2328 
Q 3016 3291 2770 3770 
Q 2525 4250 2034 4250 
z
M 2034 4750 
Q 2819 4750 3233 4129 
Q 3647 3509 3647 2328 
Q 3647 1150 3233 529 
Q 2819 -91 2034 -91 
Q 1250 -91 836 529 
Q 422 1150 422 2328 
Q 422 3509 836 4129 
Q 1250 4750 2034 4750 
z
" transform="scale(0.015625)"/>
        <path id="DejaVuSans-2212" d="M 678 2272 
L 4684 2272 
L 4684 1741 
L 678 1741 
L 678 2272 
z
" transform="scale(0.015625)"/>
       </defs>
       <use xlink:href="#DejaVuSans-31" transform="translate(0 0.765625)"/>
       <use xlink:href="#DejaVuSans-30" transform="translate(63.623047 0.765625)"/>
       <use xlink:href="#DejaVuSans-2212" transform="translate(128.203125 39.046875) scale(0.7)"/>
       <use xlink:href="#DejaVuSans-31" transform="translate(186.855469 39.046875) scale(0.7)"/>
       <use xlink:href="#DejaVuSans-30" transform="translate(231.391602 39.046875) scale(0.7)"/>
      </g>
     </g>
    </g>
    <g id="ytick_2">
     <g id="line2d_4">
      <g>
       <use xlink:href="#mea4325ea3c" x="288" y="120.989388" style="stroke: #000000; stroke-width: 0.8"/>
      </g>
     </g>
     <g id="text_2">
      <!-- $\mathdefault{10^{-9}}$ -->
      <g transform="translate(295 124.788606) scale(0.1 -0.1)">
       <defs>
        <path id="DejaVuSans-39" d="M 703 97 
L 703 672 
Q 941 559 1184 500 
Q 1428 441 1663 441 
Q 2288 441 2617 861 
Q 2947 1281 2994 2138 
Q 2813 1869 2534 1725 
Q 2256 1581 1919 1581 
Q 1219 1581 811 2004 
Q 403 2428 403 3163 
Q 403 3881 828 4315 
Q 1253 4750 1959 4750 
Q 2769 4750 3195 4129 
Q 3622 3509 3622 2328 
Q 3622 1225 3098 567 
Q 2575 -91 1691 -91 
Q 1453 -91 1209 -44 
Q 966 3 703 97 
z
M 1959 2075 
Q 2384 2075 2632 2365 
Q 2881 2656 2881 3163 
Q 2881 3666 2632 3958 
Q 2384 4250 1959 4250 
Q 1534 4250 1286 3958 
Q 1038 3666 1038 3163 
Q 1038 2656 1286 2365 
Q 1534 2075 1959 2075 
z
" transform="scale(0.015625)"/>
       </defs>
       <use xlink:href="#DejaVuSans-31" transform="translate(0 0.765625)"/>
       <use xlink:href="#DejaVuSans-30" transform="translate(63.623047 0.765625)"/>
       <use xlink:href="#DejaVuSans-2212" transform="translate(128.203125 39.046875) scale(0.7)"/>
       <use xlink:href="#DejaVuSans-39" transform="translate(186.855469 39.046875) scale(0.7)"/>
      </g>
     </g>
    </g>
    <g id="ytick_3">
     <g id="line2d_5">
      <g>
       <use xlink:href="#mea4325ea3c" x="288" y="34.475337" style="stroke: #000000; stroke-width: 0.8"/>
      </g>
     </g>
     <g id="text_3">
      <!-- $\mathdefault{10^{-8}}$ -->
      <g transform="translate(295 38.274556) scale(0.1 -0.1)">
       <defs>
        <path id="DejaVuSans-38" d="M 2034 2216 
Q 1584 2216 1326 1975 
Q 1069 1734 1069 1313 
Q 1069 891 1326 650 
Q 1584 409 2034 409 
Q 2484 409 2743 651 
Q 3003 894 3003 1313 
Q 3003 1734 2745 1975 
Q 2488 2216 2034 2216 
z
M 1403 2484 
Q 997 2584 770 2862 
Q 544 3141 544 3541 
Q 544 4100 942 4425 
Q 1341 4750 2034 4750 
Q 2731 4750 3128 4425 
Q 3525 4100 3525 3541 
Q 3525 3141 3298 2862 
Q 3072 2584 2669 2484 
Q 3125 2378 3379 2068 
Q 3634 1759 3634 1313 
Q 3634 634 3220 271 
Q 2806 -91 2034 -91 
Q 1263 -91 848 271 
Q 434 634 434 1313 
Q 434 1759 690 2068 
Q 947 2378 1403 2484 
z
M 1172 3481 
Q 1172 3119 1398 2916 
Q 1625 2713 2034 2713 
Q 2441 2713 2670 2916 
Q 2900 3119 2900 3481 
Q 2900 3844 2670 4047 
Q 2441 4250 2034 4250 
Q 1625 4250 1398 4047 
Q 1172 3844 1172 3481 
z
" transform="scale(0.015625)"/>
       </defs>
       <use xlink:href="#DejaVuSans-31" transform="translate(0 0.765625)"/>
       <use xlink:href="#DejaVuSans-30" transform="translate(63.623047 0.765625)"/>
       <use xlink:href="#DejaVuSans-2212" transform="translate(128.203125 39.046875) scale(0.7)"/>
       <use xlink:href="#DejaVuSans-38" transform="translate(186.855469 39.046875) scale(0.7)"/>
      </g>
     </g>
    </g>
    <g id="ytick_4">
     <g id="line2d_6">
      <defs>
       <path id="me3a818830c" d="M 0 0 
L 2 0 
" style="stroke: #000000; stroke-width: 0.6"/>
      </defs>
      <g>
       <use xlink:href="#me3a818830c" x="288" y="267.974165" style="stroke: #000000; stroke-width: 0.6"/>
      </g>
     </g>
    </g>
    <g id="ytick_5">
     <g id="line2d_7">
      <g>
       <use xlink:href="#me3a818830c" x="288" y="252.739796" style="stroke: #000000; stroke-width: 0.6"/>
      </g>
     </g>
    </g>
    <g id="ytick_6">
     <g id="line2d_8">
      <g>
       <use xlink:href="#me3a818830c" x="288" y="241.93084" style="stroke: #000000; stroke-width: 0.6"/>
      </g>
     </g>
    </g>
    <g id="ytick_7">
     <g id="line2d_9">
      <g>
       <use xlink:href="#me3a818830c" x="288" y="233.546763" style="stroke: #000000; stroke-width: 0.6"/>
      </g>
     </g>
    </g>
    <g id="ytick_8">
     <g id="line2d_10">
      <g>
       <use xlink:href="#me3a818830c" x="288" y="226.696472" style="stroke: #000000; stroke-width: 0.6"/>
      </g>
     </g>
    </g>
    <g id="ytick_9">
     <g id="line2d_11">
      <g>
       <use xlink:href="#me3a818830c" x="288" y="220.904634" style="stroke: #000000; stroke-width: 0.6"/>
      </g>
     </g>
    </g>
    <g id="ytick_10">
     <g id="line2d_12">
      <g>
       <use xlink:href="#me3a818830c" x="288" y="215.887516" style="stroke: #000000; stroke-width: 0.6"/>
      </g>
     </g>
    </g>
    <g id="ytick_11">
     <g id="line2d_13">
      <g>
       <use xlink:href="#me3a818830c" x="288" y="211.462104" style="stroke: #000000; stroke-width: 0.6"/>
      </g>
     </g>
    </g>
    <g id="ytick_12">
     <g id="line2d_14">
      <g>
       <use xlink:href="#me3a818830c" x="288" y="181.460114" style="stroke: #000000; stroke-width: 0.6"/>
      </g>
     </g>
    </g>
    <g id="ytick_13">
     <g id="line2d_15">
      <g>
       <use xlink:href="#me3a818830c" x="288" y="166.225746" style="stroke: #000000; stroke-width: 0.6"/>
      </g>
     </g>
    </g>
    <g id="ytick_14">
     <g id="line2d_16">
      <g>
       <use xlink:href="#me3a818830c" x="288" y="155.41679" style="stroke: #000000; stroke-width: 0.6"/>
      </g>
     </g>
    </g>
    <g id="ytick_15">
     <g id="line2d_17">
      <g>
       <use xlink:href="#me3a818830c" x="288" y="147.032712" style="stroke: #000000; stroke-width: 0.6"/>
      </g>
     </g>
    </g>
    <g id="ytick_16">
     <g id="line2d_18">
      <g>
       <use xlink:href="#me3a818830c" x="288" y="140.182421" style="stroke: #000000; stroke-width: 0.6"/>
      </g>
     </g>
    </g>
    <g id="ytick_17">
     <g id="line2d_19">
      <g>
       <use xlink:href="#me3a818830c" x="288" y="134.390584" style="stroke: #000000; stroke-width: 0.6"/>
      </g>
     </g>
    </g>
    <g id="ytick_18">
     <g id="line2d_20">
      <g>
       <use xlink:href="#me3a818830c" x="288" y="129.373465" style="stroke: #000000; stroke-width: 0.6"/>
      </g>
     </g>
    </g>
    <g id="ytick_19">
     <g id="line2d_21">
      <g>
       <use xlink:href="#me3a818830c" x="288" y="124.948053" style="stroke: #000000; stroke-width: 0.6"/>
      </g>
     </g>
    </g>
    <g id="ytick_20">
     <g id="line2d_22">
      <g>
       <use xlink:href="#me3a818830c" x="288" y="94.946063" style="stroke: #000000; stroke-width: 0.6"/>
      </g>
     </g>
    </g>
    <g id="ytick_21">
     <g id="line2d_23">
      <g>
       <use xlink:href="#me3a818830c" x="288" y="79.711695" style="stroke: #000000; stroke-width: 0.6"/>
      </g>
     </g>
    </g>
    <g id="ytick_22">
     <g id="line2d_24">
      <g>
       <use xlink:href="#me3a818830c" x="288" y="68.902739" style="stroke: #000000; stroke-width: 0.6"/>
      </g>
     </g>
    </g>
    <g id="ytick_23">
     <g id="line2d_25">
      <g>
       <use xlink:href="#me3a818830c" x="288" y="60.518661" style="stroke: #000000; stroke-width: 0.6"/>
      </g>
     </g>
    </g>
    <g id="ytick_24">
     <g id="line2d_26">
      <g>
       <use xlink:href="#me3a818830c" x="288" y="53.668371" style="stroke: #000000; stroke-width: 0.6"/>
      </g>
     </g>
    </g>
    <g id="ytick_25">
     <g id="line2d_27">
      <g>
       <use xlink:href="#me3a818830c" x="288" y="47.876533" style="stroke: #000000; stroke-width: 0.6"/>
      </g>
     </g>
    </g>
    <g id="ytick_26">
     <g id="line2d_28">
      <g>
       <use xlink:href="#me3a818830c" x="288" y="42.859415" style="stroke: #000000; stroke-width: 0.6"/>
      </g>
     </g>
    </g>
    <g id="ytick_27">
     <g id="line2d_29">
      <g>
       <use xlink:href="#me3a818830c" x="288" y="38.434003" style="stroke: #000000; stroke-width: 0.6"/>
      </g>
     </g>
    </g>
    <g id="ytick_28">
     <g id="line2d_30">
      <g>
       <use xlink:href="#me3a818830c" x="288" y="8.432013" style="stroke: #000000; stroke-width: 0.6"/>
      </g>
     </g>
    </g>
   </g>
   <g id="line2d_31">
    <path d="M 0 13.090909 
L 0.72 81.415029 
L 1.44 43.704916 
L 2.16 56.701921 
L 2.88 122.724432 
L 3.6 76.644957 
L 4.32 54.193009 
L 5.04 49.194585 
L 5.76 53.578554 
L 6.48 67.509335 
L 7.2 101.14345 
L 7.92 126.265063 
L 8.64 77.758339 
L 9.36 61.172658 
L 10.08 53.763252 
L 10.8 51.638516 
L 11.52 53.658889 
L 12.24 59.81956 
L 12.96 71.309664 
L 13.68 92.502691 
L 14.4 155.253643 
L 15.12 111.182455 
L 15.84 81.783142 
L 16.56 67.77937 
L 17.28 59.954585 
L 18 55.845879 
L 18.72 54.494797 
L 19.44 55.523698 
L 20.16 58.897221 
L 20.88 64.912851 
L 21.6 74.407846 
L 22.32 89.565276 
L 23.04 118.208217 
L 23.76 187.359593 
L 24.48 109.085164 
L 25.2 86.961455 
L 25.92 74.70653 
L 26.64 67.077312 
L 27.36 62.334724 
L 28.08 59.710022 
L 28.8 58.827812 
L 29.52 59.520111 
L 30.24 61.762607 
L 30.96 65.668755 
L 31.68 71.536866 
L 32.4 79.995528 
L 33.12 92.437424 
L 33.84 112.726914 
L 34.56 162.032059 
L 35.28 142.728741 
L 36 108.022886 
L 36.72 91.499533 
L 37.44 81.27221 
L 38.16 74.445611 
L 38.88 69.864348 
L 39.6 66.962227 
L 40.32 65.434802 
L 41.04 65.118496 
L 41.76 65.940633 
L 42.48 67.900883 
L 43.2 71.072197 
L 43.92 75.621915 
L 44.64 81.866898 
L 45.36 90.407721 
L 46.08 102.500534 
L 46.8 121.422408 
L 47.52 162.20642 
L 48.24 164.941222 
L 48.96 123.807409 
L 49.68 105.679926 
L 50.4 94.515654 
L 51.12 86.912242 
L 51.84 81.56674 
L 52.56 77.847302 
L 53.28 75.40749 
L 54 74.046187 
L 54.72 73.647608 
L 55.44 74.153643 
L 56.16 75.551932 
L 56.88 77.873811 
L 57.6 81.201189 
L 58.32 85.685598 
L 59.04 91.589768 
L 59.76 99.380366 
L 60.48 109.961873 
L 61.2 125.413191 
L 61.92 152.574009 
L 62.64 265.978597 
L 63.36 150.248718 
L 64.08 126.078661 
L 64.8 112.422234 
L 65.52 103.321279 
L 66.24 96.867094 
L 66.96 92.206256 
L 67.68 88.888071 
L 68.4 86.651333 
L 69.12 85.337801 
L 69.84 84.852297 
L 70.56 85.143064 
L 71.28 86.192531 
L 72 88.014482 
L 72.72 90.656596 
L 73.44 94.209346 
L 74.16 98.824951 
L 74.88 104.755987 
L 75.6 112.43867 
L 76.32 122.696698 
L 77.04 137.357279 
L 77.76 162.004147 
L 78.48 255.177689 
L 79.2 170.17687 
L 79.92 143.215201 
L 80.64 128.571184 
L 81.36 118.902293 
L 82.08 112.028632 
L 82.8 107.00651 
L 83.52 103.345703 
L 84.24 100.763891 
L 84.96 99.089247 
L 85.68 98.215948 
L 86.4 98.082116 
L 87.12 98.658801 
L 87.84 99.945342 
L 88.56 101.969352 
L 89.28 104.791384 
L 90 108.515948 
L 90.72 113.313583 
L 91.44 119.465434 
L 92.16 127.460817 
L 92.88 138.24336 
L 93.6 153.996146 
L 94.32 182.086507 
L 95.04 267.123641 
L 95.76 175.841766 
L 96.48 152.25405 
L 97.2 138.604004 
L 97.92 129.322967 
L 98.64 122.584212 
L 99.36 117.561463 
L 100.08 113.814503 
L 100.8 111.085559 
L 101.52 109.215882 
L 102.24 108.106744 
L 102.96 107.699823 
L 103.68 107.967259 
L 104.4 108.90739 
L 105.12 110.544636 
L 105.84 112.933499 
L 106.56 116.168095 
L 107.28 120.401055 
L 108 125.881002 
L 108.72 133.032334 
L 109.44 142.648203 
L 110.16 156.464404 
L 110.88 179.643837 
L 111.6 256.088784 
L 112.32 190.90378 
L 113.04 161.937103 
L 113.76 146.140969 
L 114.48 135.471117 
L 115.2 127.617995 
L 115.92 121.592809 
L 116.64 116.882331 
L 117.36 113.188136 
L 118.08 110.323926 
L 118.8 108.168437 
L 119.52 106.641544 
L 120.24 105.691313 
L 120.96 105.286824 
L 121.68 105.414375 
L 122.4 106.075962 
L 123.12 107.289644 
L 123.84 109.091893 
L 124.56 111.542563 
L 125.28 114.733996 
L 126 118.807532 
L 126.72 123.984681 
L 127.44 130.630862 
L 128.16 139.402221 
L 128.88 151.65134 
L 129.6 170.954415 
L 130.32 215.025758 
L 131.04 206.172365 
L 131.76 167.54831 
L 132.48 149.041273 
L 133.2 136.917339 
L 133.92 128.035055 
L 134.64 121.156365 
L 135.36 115.665456 
L 136.08 111.212063 
L 136.8 107.578921 
L 137.52 104.623109 
L 138.24 102.246837 
L 138.96 100.381609 
L 139.68 98.979098 
L 140.4 98.005675 
L 141.12 97.439069 
L 141.84 97.266384 
L 142.56 97.483041 
L 143.28 98.092458 
L 144 99.106396 
L 144.72 100.546051 
L 145.44 102.444089 
L 146.16 104.848058 
L 146.88 107.826005 
L 147.6 111.475839 
L 148.32 115.941663 
L 149.04 121.444004 
L 149.76 128.34086 
L 150.48 137.266726 
L 151.2 149.511176 
L 151.92 168.407777 
L 152.64 209.35155 
L 153.36 209.940359 
L 154.08 168.566906 
L 154.8 149.558793 
L 155.52 137.243533 
L 156.24 128.254799 
L 156.96 121.292417 
L 157.68 115.7163 
L 158.4 111.164409 
L 159.12 107.412673 
L 159.84 104.313521 
L 160.56 101.765416 
L 161.28 99.696377 
L 162 98.054456 
L 162.72 96.801964 
L 163.44 95.911862 
L 164.16 95.365457 
L 164.88 95.150971 
L 165.6 95.262701 
L 166.32 95.700645 
L 167.04 96.470538 
L 167.76 97.584295 
L 168.48 99.060943 
L 169.2 100.928178 
L 169.92 103.224859 
L 170.64 106.004921 
L 171.36 109.343669 
L 172.08 113.348236 
L 172.8 118.175877 
L 173.52 124.068265 
L 174.24 131.422011 
L 174.96 140.953773 
L 175.68 154.169843 
L 176.4 175.234838 
L 177.12 228.713017 
L 177.84 199.845941 
L 178.56 166.105398 
L 179.28 148.816041 
L 180 137.242057 
L 180.72 128.64233 
L 181.44 121.893777 
L 182.16 116.425449 
L 182.88 111.907521 
L 183.6 108.132589 
L 184.32 104.962173 
L 185.04 102.299692 
L 185.76 100.075607 
L 186.48 98.238716 
L 187.2 96.750794 
L 187.92 95.583174 
L 188.64 94.714496 
L 189.36 94.129214 
L 190.08 93.816606 
L 190.8 93.770143 
L 191.52 93.987134 
L 192.24 94.46859 
L 192.96 95.21931 
L 193.68 96.248183 
L 194.4 97.568748 
L 195.12 99.200097 
L 195.84 101.168237 
L 196.56 103.508143 
L 197.28 106.266877 
L 198 109.508432 
L 198.72 113.32154 
L 199.44 117.832838 
L 200.16 123.230471 
L 200.88 129.809865 
L 201.6 138.072499 
L 202.32 148.974071 
L 203.04 164.716217 
L 203.76 192.739215 
L 204.48 274.909091 
L 205.2 185.217682 
L 205.92 161.098067 
L 206.64 146.707169 
L 207.36 136.518064 
L 208.08 128.708021 
L 208.8 122.446228 
L 209.52 117.283591 
L 210.96 109.269791 
L 212.4 103.425922 
L 213.84 99.14026 
L 215.28 96.071002 
L 216 94.925071 
L 216.72 94.013541 
L 217.44 93.322828 
L 218.16 92.842453 
L 218.88 92.564553 
L 219.6 92.483549 
L 220.32 92.595915 
L 221.04 92.900048 
L 221.76 93.396217 
L 222.48 94.086578 
L 223.2 94.975276 
L 223.92 96.068628 
L 225.36 98.907277 
L 226.8 102.711008 
L 228.24 107.659862 
L 229.68 114.054982 
L 231.12 122.429236 
L 231.84 127.650572 
L 232.56 133.834352 
L 233.28 141.34021 
L 234 150.801838 
L 234.72 163.501825 
L 235.44 182.741733 
L 236.16 223.617719 
L 236.88 225.87264 
L 237.6 184.294226 
L 238.32 165.393648 
L 239.04 153.180552 
L 239.76 144.25358 
L 240.48 137.302529 
L 241.2 131.682742 
L 241.92 127.029163 
L 243.36 119.79018 
L 244.8 114.518605 
L 246.24 110.672112 
L 247.68 107.941776 
L 248.4 106.933402 
L 249.12 106.140011 
L 249.84 105.548926 
L 250.56 105.150272 
L 251.28 104.936546 
L 252 104.902306 
L 252.72 105.043961 
L 253.44 105.359639 
L 254.16 105.849124 
L 254.88 106.513858 
L 255.6 107.357004 
L 257.04 109.600659 
L 258.48 112.647 
L 259.92 116.609411 
L 261.36 121.672712 
L 262.8 128.143991 
L 264.24 136.566089 
L 264.96 141.806771 
L 265.68 148.01348 
L 266.4 155.556355 
L 267.12 165.091699 
L 267.84 177.961245 
L 268.56 197.685394 
L 269.28 241.388965 
L 270 235.097209 
L 270.72 196.094216 
L 271.44 177.606601 
L 272.16 165.47796 
L 272.88 156.515424 
L 273.6 149.465698 
L 274.32 143.705757 
L 275.76 134.767544 
L 277.2 128.132994 
L 278.64 123.062363 
L 280.08 119.14858 
L 281.52 116.145063 
L 282.96 113.892764 
L 284.4 112.284965 
L 285.84 111.248694 
L 286.56 110.928638 
L 287.28 110.734296 
L 288 110.662118 
L 288 110.662118 
" clip-path="url(#pc2748a7339)" style="fill: none; stroke-dasharray: 18.5,8; stroke-dashoffset: 0; stroke: #008000; stroke-width: 5"/>
   </g>
   <g id="patch_2">
    <path d="M 0 288 
L 0 0 
" style="fill: none; stroke: #000000; stroke-width: 0.8; stroke-linejoin: miter; stroke-linecap: square"/>
   </g>
   <g id="patch_3">
    <path d="M 288 288 
L 288 0 
" style="fill: none; stroke: #000000; stroke-width: 0.8; stroke-linejoin: miter; stroke-linecap: square"/>
   </g>
   <g id="patch_4">
    <path d="M 0 288 
L 288 288 
" style="fill: none; stroke: #000000; stroke-width: 0.8; stroke-linejoin: miter; stroke-linecap: square"/>
   </g>
   <g id="patch_5">
    <path d="M 0 0 
L 288 0 
" style="fill: none; stroke: #000000; stroke-width: 0.8; stroke-linejoin: miter; stroke-linecap: square"/>
   </g>
  </g>
 </g>
 <defs>
  <clipPath id="pc2748a7339">
   <rect x="0" y="0" width="288" height="288"/>
  </clipPath>
 </defs>
</svg>
