<?xml version="1.0" encoding="UTF-8" standalone="no"?>
<svg
   width="288.79999pt"
   height="288.79999pt"
   viewBox="0 0 288.79999 288.79999"
   version="1.1"
   id="svg47"
   sodipodi:docname="vpmr.svg"
   inkscape:version="1.4 (86a8ad7, 2024-10-11)"
   xmlns:inkscape="http://www.inkscape.org/namespaces/inkscape"
   xmlns:sodipodi="http://sodipodi.sourceforge.net/DTD/sodipodi-0.dtd"
   xmlns="http://www.w3.org/2000/svg"
   xmlns:svg="http://www.w3.org/2000/svg"
   xmlns:rdf="http://www.w3.org/1999/02/22-rdf-syntax-ns#"
   xmlns:cc="http://creativecommons.org/ns#"
   xmlns:dc="http://purl.org/dc/elements/1.1/">
  <sodipodi:namedview
     id="namedview47"
     pagecolor="#ffffff"
     bordercolor="#000000"
     borderopacity="0.25"
     inkscape:showpageshadow="2"
     inkscape:pageopacity="0.0"
     inkscape:pagecheckerboard="0"
     inkscape:deskcolor="#d1d1d1"
     inkscape:document-units="pt"
     inkscape:zoom="4.7265625"
     inkscape:cx="192.7405"
     inkscape:cy="192.63471"
     inkscape:window-width="3840"
     inkscape:window-height="2054"
     inkscape:window-x="3829"
     inkscape:window-y="-11"
     inkscape:window-maximized="1"
     inkscape:current-layer="svg47" />
  <metadata
     id="metadata1">
    <rdf:RDF>
      <cc:Work>
        <dc:type
           rdf:resource="http://purl.org/dc/dcmitype/StillImage" />
        <dc:date>2023-09-07T20:38:20.441726</dc:date>
        <dc:format>image/svg+xml</dc:format>
        <dc:creator>
          <cc:Agent>
            <dc:title>Matplotlib v3.7.2, https://matplotlib.org/</dc:title>
          </cc:Agent>
        </dc:creator>
      </cc:Work>
    </rdf:RDF>
  </metadata>
  <defs
     id="defs1">
    <style
       type="text/css"
       id="style1">*{stroke-linejoin: round; stroke-linecap: butt}</style>
  </defs>
  <g
     id="figure_1"
     transform="translate(0.40000001,0.40000001)"
     style="display:inline">
    <g
       id="axes_1"
       style="display:inline">
      <g
         id="line2d_1"
         style="display:inline">
        <path
           d="m 0,13.090914 1.44,0.163585 1.44,0.490143 1.44,0.814865 1.44,1.136541 1.44,1.45398 1.44,1.766016 1.44,2.071517 1.44,2.36939 2.16,4.093357 2.16,4.71044 2.16,5.289567 2.16,5.826688 2.88,8.525354 2.88,9.283368 3.6,12.483565 4.32,15.943809 6.48,24.999271 8.64,33.27434 4.32,15.84508 4.32,14.95978 3.6,11.64899 3.6,10.81932 2.88,8.02253 2.88,7.44365 2.88,6.86019 2.88,6.28087 2.88,5.71334 2.88,5.16409 2.88,4.63845 2.88,4.1406 2.88,3.67369 2.88,3.2398 2.88,2.84013 2.88,2.47508 2.88,2.14434 2.88,1.84702 2.88,1.58178 2.88,1.34689 2.88,1.14037 3.6,1.17478 3.6,0.93916 4.32,0.87296 4.32,0.65226 5.04,0.54791 6.48,0.46196 7.92,0.32352 10.8,0.20536 18.72,0.10092 70.56,0.0176 H 288 v 0"
           clip-path="url(#pc2748a7339)"
           style="fill:none;stroke:#377eb8;stroke-width:8;stroke-linecap:square;stroke-opacity:1;stroke-dasharray:none"
           id="path2" />
      </g>
      <g
         id="line2d_2"
         style="display:inline">
        <path
           d="m 0,13.090909 1.44,0.163592 1.44,0.490141 1.44,0.814863 1.44,1.136542 1.44,1.453981 1.44,1.766017 1.44,2.071517 1.44,2.369391 2.16,4.093356 2.16,4.710438 2.16,5.289567 2.16,5.826688 2.88,8.525355 2.88,9.283369 3.6,12.483565 4.32,15.943809 6.48,24.99926 8.64,33.27435 4.32,15.84508 4.32,14.95978 3.6,11.64899 3.6,10.81932 2.88,8.02253 2.88,7.44365 2.88,6.86019 2.88,6.28087 2.88,5.71334 2.88,5.16409 2.88,4.63845 2.88,4.1406 2.88,3.67369 2.88,3.2398 2.88,2.84013 2.88,2.47508 2.88,2.14433 2.88,1.84703 2.88,1.58178 2.88,1.34689 2.88,1.14037 3.6,1.17478 3.6,0.93916 4.32,0.87296 4.32,0.65226 5.04,0.54791 6.48,0.46196 7.92,0.32352 10.8,0.20536 18.72,0.10092 70.56,0.0176 H 288 v 0"
           clip-path="url(#pc2748a7339)"
           style="fill:none;stroke:#e41a1c;stroke-width:8;stroke-dasharray:32,8;stroke-dashoffset:0;stroke-opacity:1"
           id="path3" />
      </g>
    </g>
    <g
       id="axes_2"
       style="display:inline">
      <g
         id="line2d_31"
         style="display:inline">
        <path
           d="M 0,13.090909 0.72,81.415029 1.44,43.704916 2.16,56.701921 2.88,122.72443 3.6,76.644957 4.32,54.193009 5.04,49.194585 5.76,53.578554 6.48,67.509335 7.2,101.14345 7.92,126.26506 8.64,77.758339 9.36,61.172658 l 0.72,-7.409406 0.72,-2.124736 0.72,2.020373 0.72,6.160671 0.72,11.490104 0.72,21.193027 0.72,62.750949 0.72,-44.07118 0.72,-29.399318 0.72,-14.003772 0.72,-7.824785 0.72,-4.108706 0.72,-1.351082 0.72,1.028901 0.72,3.373523 0.72,6.01563 0.72,9.494995 0.72,15.15743 0.72,28.642944 0.72,69.15137 0.72,-78.27443 0.72,-22.123705 0.72,-12.254925 0.72,-7.629218 0.72,-4.742588 0.72,-2.624702 0.72,-0.88221 0.72,0.692299 0.72,2.242496 0.72,3.906148 0.72,5.868111 0.72,8.458662 0.72,12.441896 0.72,20.289486 0.72,49.30515 0.72,-19.30332 0.72,-34.70585 0.72,-16.523357 0.72,-10.227323 0.72,-6.826599 0.72,-4.581263 0.72,-2.902121 0.72,-1.527425 0.72,-0.316306 0.72,0.822137 0.72,1.96025 0.72,3.171314 0.72,4.549718 0.72,6.244983 0.72,8.540823 0.72,12.092809 0.72,18.92188 0.72,40.78401 0.72,2.7348 0.72,-41.13381 0.72,-18.12748 0.72,-11.164276 0.72,-7.603412 0.72,-5.345502 0.72,-3.719438 0.72,-2.439812 0.72,-1.361303 0.72,-0.398579 0.72,0.506035 0.72,1.398289 0.72,2.321879 0.72,3.327378 0.72,4.484409 0.72,5.90417 0.72,7.790598 0.72,10.581504 0.72,15.45132 0.72,27.16082 0.72,113.40459 0.72,-115.72988 0.72,-24.17006 0.72,-13.65643 0.72,-9.10095 0.72,-6.454186 0.72,-4.660838 0.72,-3.318185 0.72,-2.236738 0.72,-1.313532 0.72,-0.485504 0.72,0.290767 0.72,1.049467 0.72,1.821951 0.72,2.642114 0.72,3.55275 0.72,4.615605 0.72,5.931039 0.72,7.68268 0.72,10.25803 0.72,14.66058 0.72,24.64687 0.72,93.17354 0.72,-85.00082 0.72,-26.96167 0.72,-14.64402 0.72,-9.66889 0.72,-6.87366 0.72,-5.02212 0.72,-3.66081 0.72,-2.58181 0.72,-1.674643 0.72,-0.873299 0.72,-0.133832 0.72,0.576685 0.72,1.286541 0.72,2.024008 0.72,2.82203 0.72,3.72457 0.72,4.79763 0.72,6.15185 0.72,7.99539 0.72,10.78254 0.72,15.75279 0.72,28.09036 0.72,85.03713 0.72,-91.28187 0.72,-23.58772 0.72,-13.65005 0.72,-9.28103 0.72,-6.73876 0.72,-5.02275 0.72,-3.74696 0.72,-2.72894 0.72,-1.86968 0.72,-1.10914 0.72,-0.40692 0.72,0.26744 0.72,0.94013 0.72,1.63725 0.72,2.38886 0.72,3.23459 0.72,4.23297 0.72,5.47994 0.72,7.15133 0.72,9.61587 0.72,13.8162 0.72,23.17944 0.72,76.44494 0.72,-65.185 0.72,-28.96668 0.72,-15.79613 0.72,-10.66985 0.72,-7.85313 0.72,-6.02518 0.72,-4.71048 0.72,-3.69419 0.72,-2.86421 0.72,-2.15549 0.72,-1.5269 0.72,-0.95023 0.72,-0.40449 0.72,0.12756 0.72,0.66158 0.72,1.21368 0.72,1.80225 0.72,2.45067 0.72,3.19144 0.72,4.07353 0.72,5.17715 0.72,6.64618 0.72,8.77136 0.72,12.24912 0.72,19.30307 0.72,44.07135 0.72,-8.85339 0.72,-38.62406 0.72,-18.50704 0.72,-12.12393 0.72,-8.88229 0.72,-6.87869 0.72,-5.4909 0.72,-4.4534 0.72,-3.63314 0.72,-2.95581 0.72,-2.37627 0.72,-1.86523 0.72,-1.402512 0.72,-0.973423 0.72,-0.566606 0.72,-0.172685 0.72,0.216657 0.72,0.609417 0.72,1.013938 0.72,1.439654 0.72,1.89804 0.72,2.40397 0.72,2.97794 0.72,3.64984 0.72,4.46582 0.72,5.50234 0.72,6.89686 0.72,8.92587 0.72,12.24445 0.72,18.8966 0.72,40.94377 0.72,0.58881 0.72,-41.37345 0.72,-19.00812 0.72,-12.31526 0.72,-8.98873 0.72,-6.96238 0.72,-5.57612 0.72,-4.55189 0.72,-3.75174 0.72,-3.09915 0.72,-2.5481 0.72,-2.069043 0.72,-1.641921 0.72,-1.252492 0.72,-0.890102 0.72,-0.546405 0.72,-0.214486 0.72,0.11173 0.72,0.437944 0.72,0.769893 0.72,1.113757 0.72,1.476648 0.72,1.867237 0.72,2.29668 0.72,2.78006 0.72,3.33875 0.72,4.00457 0.72,4.82764 0.72,5.89238 0.72,7.35375 0.72,9.53176 0.72,13.21607 0.72,21.065 0.72,53.47818 0.72,-28.86708 0.72,-33.74054 0.72,-17.28936 0.72,-11.57398 0.72,-8.59973 0.72,-6.74855 0.72,-5.46833 0.72,-4.51793 0.72,-3.77493 0.72,-3.17042 0.72,-2.66248 0.72,-2.22408 0.72,-1.836894 0.72,-1.487922 0.72,-1.16762 0.72,-0.868678 0.72,-0.585282 0.72,-0.312608 0.72,-0.04646 0.72,0.216991 0.72,0.481456 0.72,0.75072 0.72,1.028873 0.72,1.320565 0.72,1.631349 0.72,1.96814 0.72,2.3399 0.72,2.75874 0.72,3.24155 0.72,3.81311 0.72,4.5113 0.72,5.39763 0.72,6.57939 0.72,8.26264 0.72,10.90157 0.72,15.74215 0.72,28.02299 0.72,82.16988 0.72,-89.69141 0.72,-24.11961 0.72,-14.3909 0.72,-10.18911 0.72,-7.81004 0.72,-6.26179 0.72,-5.16264 1.44,-8.0138 1.44,-5.84387 1.44,-4.285657 1.44,-3.069258 0.72,-1.145931 0.72,-0.91153 0.72,-0.690713 0.72,-0.480375 0.72,-0.2779 0.72,-0.081 0.72,0.112366 0.72,0.304133 0.72,0.496169 0.72,0.690361 0.72,0.888698 0.72,1.093352 1.44,2.838649 1.44,3.803736 1.44,4.94885 1.44,6.39512 1.44,8.37426 0.72,5.22133 0.72,6.18378 0.72,7.50586 0.72,9.46163 0.72,12.69998 0.72,19.23991 0.72,40.87599 0.72,2.25492 0.72,-41.57841 0.72,-18.90058 0.72,-12.2131 0.72,-8.92697 0.72,-6.95105 0.72,-5.61979 0.72,-4.65358 1.44,-7.23898 1.44,-5.27158 1.44,-3.84649 1.44,-2.73033 0.72,-1.00838 0.72,-0.79339 0.72,-0.59108 0.72,-0.39866 0.72,-0.21372 0.72,-0.0342 0.72,0.14165 0.72,0.31568 0.72,0.48948 0.72,0.66474 0.72,0.84314 1.44,2.24366 1.44,3.04634 1.44,3.96241 1.44,5.0633 1.44,6.47128 1.44,8.4221 0.72,5.24068 0.72,6.20671 0.72,7.54287 0.72,9.53535 0.72,12.86954 0.72,19.72415 0.72,43.70358 0.72,-6.29176 0.72,-39.00299 0.72,-18.48762 0.72,-12.12864 0.72,-8.96254 0.72,-7.04972 0.72,-5.75994 1.44,-8.93822 1.44,-6.63455 1.44,-5.07063 1.44,-3.91378 1.44,-3.00352 1.44,-2.2523 1.44,-1.60779 1.44,-1.03628 0.72,-0.32005 0.72,-0.19434 0.72,-0.0722 v 0"
           clip-path="url(#pc2748a7339)"
           style="fill:none;stroke:#4daf4a;stroke-width:6;stroke-dasharray:none;stroke-dashoffset:0;stroke-opacity:1"
           id="path43" />
      </g>
      <g
         id="patch_2">
        <path
           d="M 0,288 V 0"
           style="fill:none;stroke:#000000;stroke-width:0.8;stroke-linecap:square;stroke-linejoin:miter"
           id="path44" />
      </g>
      <g
         id="patch_3">
        <path
           d="M 288,288 V 0"
           style="fill:none;stroke:#000000;stroke-width:0.8;stroke-linecap:square;stroke-linejoin:miter"
           id="path45" />
      </g>
      <g
         id="patch_4"
         style="display:inline">
        <path
           d="M 0,288 H 288"
           style="fill:none;stroke:#000000;stroke-width:0.8;stroke-linecap:square;stroke-linejoin:miter"
           id="path46" />
      </g>
      <g
         id="patch_5"
         style="display:inline">
        <path
           d="M 0,0 H 288"
           style="fill:none;stroke:#000000;stroke-width:0.8;stroke-linecap:square;stroke-linejoin:miter"
           id="path47" />
      </g>
    </g>
  </g>
  <defs
     id="defs47">
    <clipPath
       id="pc2748a7339">
      <rect
         x="0"
         y="0"
         width="288"
         height="288"
         id="rect47" />
    </clipPath>
  </defs>
</svg>
